<?xml version="1.0" standalone="no"?>
<!DOCTYPE svg PUBLIC "-//W3C//DTD SVG 20010904//EN"
 "http://www.w3.org/TR/2001/REC-SVG-20010904/DTD/svg10.dtd">
<svg version="1.0" xmlns="http://www.w3.org/2000/svg"
 width="500.000000pt" height="350.000000pt" viewBox="0 0 500.000000 350.000000"
 preserveAspectRatio="xMidYMid meet">

<g transform="translate(0.000000,350.000000) scale(0.100000,-0.100000)"
fill="#000000" stroke="none">
<path d="M2288 2653 c-220 -223 -249 -256 -282 -323 -33 -68 -66 -165 -66
-198 0 -10 17 -12 66 -10 l67 3 14 55 c23 92 58 137 262 343 l196 197 173
-172 c195 -194 243 -257 275 -358 l22 -70 62 0 c62 0 63 0 63 28 0 36 -41 150
-75 209 -24 42 -509 543 -525 543 -4 0 -117 -111 -252 -247z"/>
<path d="M2414 2348 c-147 -149 -169 -187 -169 -293 1 -156 118 -281 275 -293
92 -6 155 16 225 79 66 61 95 129 95 223 0 98 -35 157 -177 299 l-119 117
-130 -132z m208 -136 c81 -82 97 -119 84 -184 -17 -84 -98 -145 -182 -135 -50
5 -106 43 -129 87 -17 33 -20 106 -5 146 10 25 136 164 150 164 4 0 41 -35 82
-78z"/>
<path d="M1946 1968 c29 -165 131 -323 269 -414 56 -37 159 -78 223 -89 l42
-7 0 66 0 65 -42 11 c-164 39 -305 175 -348 334 l-17 61 -66 3 -67 3 6 -33z"/>
<path d="M3004 1963 c-12 -70 -70 -175 -127 -232 -69 -68 -114 -96 -199 -122
l-68 -21 0 -64 c0 -40 4 -64 11 -64 6 0 39 7 73 16 199 51 370 219 430 423 9
30 16 65 16 78 0 22 -4 23 -65 23 l-64 0 -7 -37z"/>
<path d="M62 1133 l3 -148 38 -3 37 -3 0 55 0 56 60 0 60 0 0 30 0 30 -60 0
-60 0 0 35 0 35 80 0 80 0 0 30 0 30 -120 0 -121 0 3 -147z"/>
<path d="M1774 1263 c2 -10 14 -54 26 -98 54 -199 47 -185 90 -185 l38 0 23
90 c13 49 27 86 30 82 4 -4 17 -44 29 -89 l22 -83 38 0 c43 0 36 -14 90 185
12 44 24 88 26 98 5 14 -1 17 -34 17 l-40 0 -22 -90 c-12 -50 -24 -89 -27 -86
-2 2 -15 42 -27 88 -23 83 -23 83 -56 83 -34 0 -34 0 -56 -84 -13 -46 -25 -89
-27 -95 -2 -6 -14 33 -26 87 l-22 97 -40 0 c-34 0 -40 -3 -35 -17z"/>
<path d="M2470 1130 l0 -150 85 0 c78 0 88 2 110 25 22 21 25 33 25 95 0 94
-18 114 -96 108 l-54 -5 0 39 c0 37 -1 38 -35 38 l-35 0 0 -150z m148 -32 l-3
-53 -37 -3 -38 -3 0 55 0 56 41 0 40 0 -3 -52z"/>
<path d="M2876 1259 c-22 -17 -26 -28 -26 -70 0 -72 21 -89 110 -89 l70 0 0
-30 0 -30 -90 0 c-88 0 -90 0 -90 -24 0 -30 20 -36 125 -36 109 0 125 11 125
89 0 74 -12 85 -104 91 -68 5 -71 6 -71 30 0 24 2 25 78 28 l77 3 0 29 0 30
-89 0 c-74 0 -92 -3 -115 -21z"/>
<path d="M3410 1147 c0 -152 7 -167 73 -167 34 0 37 2 37 30 0 23 -4 30 -20
30 -19 0 -20 7 -20 120 l0 120 -35 0 -35 0 0 -133z"/>
<path d="M4020 1255 c0 -22 4 -25 40 -25 36 0 40 3 40 25 0 23 -4 25 -40 25
-36 0 -40 -2 -40 -25z"/>
<path d="M3847 1253 c-4 -3 -7 -14 -7 -24 0 -9 -7 -19 -15 -23 -8 -3 -15 -17
-15 -31 0 -16 6 -25 15 -25 12 0 15 -14 15 -68 0 -86 14 -102 88 -102 51 0 52
1 52 30 0 28 -3 30 -35 30 l-35 0 0 55 c0 52 1 55 25 55 21 0 25 5 25 30 0 25
-4 30 -25 30 -20 0 -25 5 -25 25 0 21 -5 25 -28 25 -16 0 -32 -3 -35 -7z"/>
<path d="M310 1095 l0 -115 35 0 34 0 3 78 3 77 43 9 c37 9 42 13 42 38 0 32
-19 36 -63 13 -24 -12 -29 -12 -34 0 -3 9 -18 15 -34 15 l-29 0 0 -115z"/>
<path d="M510 1190 c-16 -16 -20 -33 -20 -93 0 -105 11 -117 105 -117 89 0
105 5 105 34 0 21 -4 23 -67 22 -54 -1 -68 2 -68 14 0 12 16 16 73 18 l72 3 0
49 c0 73 -21 90 -110 90 -57 0 -74 -4 -90 -20z m128 -52 c3 -15 -4 -18 -37
-18 -39 0 -53 14 -34 34 14 14 68 1 71 -16z"/>
<path d="M750 1095 l0 -115 35 0 34 0 3 83 3 82 33 3 32 3 0 -85 0 -86 35 0
34 0 3 83 3 82 33 3 32 3 0 -85 0 -86 35 0 35 0 0 98 c0 83 -3 102 -18 115
-21 19 -58 22 -98 7 -19 -7 -36 -7 -59 1 -24 9 -40 9 -65 0 -23 -7 -37 -8 -44
-1 -5 5 -23 10 -38 10 l-28 0 0 -115z"/>
<path d="M1160 1190 c-17 -17 -20 -33 -20 -98 0 -102 10 -112 107 -112 87 0
103 6 103 35 0 22 -3 23 -67 22 -57 -2 -68 1 -71 16 -3 15 6 17 74 17 l76 0
-4 56 c-6 73 -21 84 -110 84 -55 0 -72 -4 -88 -20z m128 -52 c3 -15 -4 -18
-37 -18 -39 0 -53 14 -34 34 14 14 68 1 71 -16z"/>
<path d="M1400 1095 l0 -115 35 0 34 0 3 83 3 82 37 3 37 3 3 -83 3 -83 35 0
35 0 3 79 c5 130 -23 162 -117 137 -32 -8 -47 -9 -49 -2 -2 6 -17 11 -33 11
l-29 0 0 -115z"/>
<path d="M2232 1194 c-20 -14 -22 -24 -22 -99 0 -106 7 -115 98 -115 91 0 114
7 110 34 -3 19 -8 21 -70 17 -64 -3 -68 -2 -68 18 0 19 6 21 70 21 l70 0 0 53
c0 73 -17 87 -101 87 -42 0 -72 -5 -87 -16z m118 -54 c0 -16 -7 -20 -35 -20
-28 0 -35 4 -35 20 0 16 7 20 35 20 28 0 35 -4 35 -20z"/>
<path d="M3162 1194 c-20 -14 -22 -24 -22 -98 0 -108 8 -116 113 -116 104 0
117 12 117 115 0 102 -13 115 -113 115 -49 0 -80 -5 -95 -16z m136 -101 l-3
-58 -40 0 -40 0 -3 58 -3 57 46 0 46 0 -3 -57z"/>
<path d="M3554 1196 c-3 -9 -4 -54 -3 -102 3 -71 7 -88 23 -100 23 -17 79 -18
108 -3 14 8 23 8 31 0 6 -6 24 -11 39 -11 l28 0 0 115 0 115 -35 0 -34 0 -3
-82 -3 -83 -37 -3 -37 -3 -3 83 -3 83 -33 3 c-22 2 -34 -2 -38 -12z"/>
<path d="M4157 1192 c-13 -14 -17 -38 -17 -99 0 -104 9 -113 111 -113 99 0
111 10 117 88 9 121 -9 142 -117 142 -63 0 -81 -4 -94 -18z m141 -81 c2 -19 1
-45 -3 -58 -5 -21 -11 -24 -43 -21 l-37 3 -3 58 -3 58 43 -3 c41 -3 43 -5 46
-37z"/>
<path d="M4410 1095 l0 -115 35 0 34 0 3 83 3 82 37 3 37 3 3 -83 3 -83 33 -3
32 -3 0 99 c0 83 -3 102 -18 115 -22 20 -70 22 -108 5 -22 -10 -28 -10 -32 0
-2 6 -17 12 -33 12 l-29 0 0 -115z"/>
<path d="M4700 1197 c-35 -18 -48 -61 -29 -95 13 -25 21 -27 82 -30 58 -2 68
-5 65 -20 -3 -14 -14 -17 -76 -14 -70 3 -72 2 -72 -21 0 -32 15 -37 110 -37
70 0 81 2 94 22 20 28 20 68 2 94 -11 14 -30 20 -78 24 -34 3 -63 10 -63 15 0
6 30 11 68 13 67 3 67 3 67 32 l0 30 -72 0 c-40 0 -84 -6 -98 -13z"/>
<path d="M3990 1171 c0 -21 5 -31 15 -31 11 0 15 -18 17 -77 l3 -78 35 0 35 0
0 105 0 105 -52 3 -53 3 0 -30z"/>
</g>
</svg>
