<?xml version="1.0" standalone="no"?>
<!DOCTYPE svg PUBLIC "-//W3C//DTD SVG 20010904//EN"
 "http://www.w3.org/TR/2001/REC-SVG-20010904/DTD/svg10.dtd">
<svg version="1.0" xmlns="http://www.w3.org/2000/svg"
 width="500.000000pt" height="350.000000pt" viewBox="0 0 500.000000 350.000000"
 preserveAspectRatio="xMidYMid meet">

<g transform="translate(0.000000,350.000000) scale(0.100000,-0.100000)"
fill="#000000" stroke="none">
<path d="M0 1750 l0 -1750 2500 0 2500 0 0 1750 0 1750 -2500 0 -2500 0 0
-1750z m2791 903 c135 -137 257 -269 272 -294 29 -52 77 -186 77 -218 0 -19
-6 -21 -63 -21 l-62 0 -19 66 c-28 98 -75 160 -273 357 l-178 177 -202 -202
c-204 -206 -228 -238 -258 -341 l-16 -57 -64 0 -64 0 5 33 c11 62 37 133 72
197 27 51 87 118 276 308 132 133 243 242 246 242 3 0 116 -111 251 -247z m15
-456 c35 -65 43 -152 20 -232 -23 -78 -106 -163 -185 -188 -146 -47 -294 12
-360 144 -27 53 -31 73 -31 138 1 111 19 143 168 293 l126 128 117 -116 c65
-65 130 -139 145 -167z m-722 -244 c24 -152 182 -311 349 -354 l47 -11 0 -64
c0 -35 -3 -64 -7 -64 -5 0 -36 7 -71 15 -111 26 -236 102 -312 189 -68 77
-140 233 -140 302 0 23 3 24 64 24 l63 0 7 -37z m1056 19 c0 -10 -7 -43 -16
-73 -60 -205 -237 -377 -435 -424 -35 -8 -67 -15 -71 -15 -5 0 -8 29 -8 64 l0
64 48 12 c160 40 300 180 344 344 l12 46 63 0 c54 0 63 -3 63 -18z m-2840
-722 l0 -30 -80 0 -80 0 0 -35 0 -35 60 0 60 0 0 -30 0 -30 -60 0 -60 0 0 -50
0 -50 -35 0 -35 0 0 145 0 145 115 0 115 0 0 -30z m1565 -52 c25 -113 31 -122
45 -68 38 148 39 150 70 150 30 0 32 -2 70 -147 6 -24 13 -43 15 -43 2 0 13
43 26 95 l21 95 39 0 38 0 -25 -92 c-56 -211 -50 -198 -94 -198 -43 0 -36 -12
-72 123 -7 26 -15 47 -19 47 -3 0 -16 -38 -28 -85 l-23 -85 -38 0 c-44 0 -39
-9 -86 165 -14 55 -29 105 -31 112 -4 9 6 13 34 13 l40 0 18 -82z m665 41 l0
-40 45 7 c92 13 121 -18 113 -125 -6 -86 -13 -91 -124 -91 l-94 0 0 145 0 145
30 0 c28 0 30 -2 30 -41z m550 11 l0 -29 -77 -3 c-76 -3 -78 -4 -78 -28 0 -24
3 -25 74 -31 87 -7 101 -19 101 -91 0 -84 -39 -101 -197 -82 -48 6 -53 9 -53
31 0 24 1 24 88 21 l87 -3 3 33 3 32 -70 0 c-58 0 -75 4 -91 20 -24 24 -27 95
-5 127 18 26 36 30 138 32 l77 1 0 -30z m400 -91 c0 -112 1 -121 20 -126 13
-3 20 -14 20 -29 0 -21 -5 -24 -35 -24 -22 0 -43 8 -55 20 -18 18 -20 33 -20
150 l0 130 35 0 35 0 0 -121z m610 96 c0 -21 -5 -25 -30 -25 -25 0 -30 4 -30
25 0 21 5 25 30 25 25 0 30 -4 30 -25z m-180 -30 c0 -20 5 -25 25 -25 20 0 25
-5 25 -25 0 -20 -5 -25 -25 -25 -25 0 -26 -2 -23 -57 3 -57 3 -58 36 -61 26
-3 32 -7 32 -28 0 -22 -4 -24 -48 -24 -27 0 -57 7 -70 16 -19 13 -22 24 -22
85 0 39 -4 69 -10 69 -5 0 -10 11 -10 25 0 14 4 25 9 25 5 0 12 11 15 25 5 20
13 25 36 25 25 0 30 -4 30 -25z m-3440 -45 c0 -24 -4 -30 -22 -30 -63 -1 -68
-7 -68 -86 l0 -74 -35 0 -35 0 0 105 0 105 29 0 c16 0 31 -5 33 -11 3 -8 13
-7 33 4 47 25 65 22 65 -13z m221 13 c7 -7 14 -37 17 -68 l4 -55 -76 0 c-68 0
-77 -2 -74 -17 3 -15 16 -19 71 -21 57 -2 67 -6 67 -21 0 -20 -40 -31 -121
-31 -70 0 -83 15 -87 103 -4 71 -3 77 23 102 24 25 31 27 95 23 39 -2 75 -9
81 -15z m243 4 c16 -11 26 -11 62 2 40 14 47 14 72 1 26 -15 27 -19 30 -113
l3 -97 -36 0 -35 0 0 81 0 80 -32 -3 -33 -3 -3 -77 -3 -78 -34 0 -35 0 0 81 0
80 -32 -3 -33 -3 -3 -77 -3 -78 -34 0 -35 0 0 106 0 107 43 -5 c23 -3 53 -2
67 2 38 12 54 11 74 -3z m396 -5 c16 -13 24 -32 28 -70 l5 -52 -77 0 c-69 0
-76 -2 -76 -20 0 -18 7 -20 70 -20 62 0 70 -2 70 -19 0 -21 -40 -31 -122 -31
-72 0 -88 21 -88 115 0 99 14 115 104 115 47 0 70 -5 86 -18z m268 2 c20 -14
22 -23 22 -110 l0 -94 -30 0 -29 0 -3 78 -3 77 -42 3 -43 3 0 -80 0 -81 -35 0
-35 0 0 106 0 107 43 -6 c23 -3 51 -1 62 3 32 14 69 11 93 -6z m800 0 c18 -12
22 -25 22 -70 l0 -54 -70 0 c-63 0 -70 -2 -70 -20 0 -18 7 -20 65 -20 57 0 65
-2 65 -19 0 -21 -35 -31 -113 -31 -76 0 -87 15 -87 116 0 102 11 114 105 114
39 0 69 -6 83 -16z m942 -2 c18 -14 24 -32 28 -75 9 -113 -10 -137 -111 -137
-106 0 -117 10 -117 111 0 105 12 119 109 119 52 0 74 -5 91 -18z m998 2 c20
-13 22 -24 22 -96 0 -108 -9 -118 -104 -118 -106 0 -116 10 -116 115 0 104 11
115 110 115 43 0 73 -5 88 -16z m270 0 c20 -14 22 -23 22 -110 l0 -94 -30 0
-29 0 -3 78 -3 77 -42 3 -43 3 0 -80 0 -81 -35 0 -35 0 0 106 0 107 43 -6 c23
-3 51 -1 62 3 32 14 69 11 93 -6z m-986 -71 l3 -78 43 -3 42 -3 0 80 0 81 35
0 35 0 0 -105 0 -106 -47 2 c-27 0 -69 -2 -94 -6 -69 -11 -79 4 -79 121 l0 94
30 0 29 0 3 -77z m1248 57 c0 -18 -7 -20 -59 -20 -37 0 -63 -5 -70 -13 -16
-21 -3 -27 56 -27 63 0 93 -23 93 -70 0 -63 -49 -81 -174 -64 -39 6 -46 10
-46 28 0 21 5 22 72 22 61 -1 73 2 76 17 3 15 -5 17 -60 17 -37 0 -69 5 -76
12 -16 16 -16 90 0 106 8 8 45 12 100 12 81 0 88 -2 88 -20z m-780 -90 l0
-100 -30 0 -30 0 0 75 c0 68 -2 75 -20 75 -15 0 -20 7 -20 25 0 23 3 25 50 25
l50 0 0 -100z"/>
<path d="M2462 2216 c-81 -86 -100 -130 -82 -196 29 -108 142 -160 240 -110
69 35 101 105 85 186 -5 29 -25 57 -83 116 -41 43 -79 78 -82 78 -4 0 -39 -34
-78 -74z"/>
<path d="M2543 1154 c-8 -4 -13 -26 -13 -60 l0 -54 45 0 46 0 -3 58 c-3 56 -4
57 -33 59 -16 1 -36 0 -42 -3z"/>
<path d="M564 1145 c-9 -23 5 -35 42 -35 30 0 34 3 34 25 0 22 -4 25 -35 25
-22 0 -38 -6 -41 -15z"/>
<path d="M1210 1135 c0 -24 3 -26 38 -23 29 2 37 7 37 23 0 16 -8 21 -37 23
-35 3 -38 1 -38 -23z"/>
<path d="M2280 1135 c0 -22 4 -25 34 -25 38 0 49 10 40 34 -4 10 -18 16 -40
16 -30 0 -34 -3 -34 -25z"/>
<path d="M3214 1147 c-3 -8 -4 -36 -2 -63 l3 -49 40 0 40 0 0 60 0 60 -38 3
c-25 2 -39 -1 -43 -11z"/>
<path d="M4217 1154 c-4 -4 -7 -34 -7 -66 l0 -59 43 3 42 3 0 60 0 60 -35 3
c-20 2 -39 0 -43 -4z"/>
</g>
</svg>
